<?xml version="1.0" encoding="UTF-8"?>
<svg id="Layer_1" data-name="Layer 1" xmlns="http://www.w3.org/2000/svg" width="120.54802526" height="55.27709627" viewBox="0 0 120.54802526 55.27709627">
  <ellipse cx="60.27401263" cy="27.63854813" rx="59.06988793" ry="26.85217659" fill="#ff2b85"/>
  <g>
    <g>
      <path d="M21.05720033,8.48292431l1.56885759,10.23808171,1.57014354-10.23808171h4.21662625v1.66337483h-.23404269c-.30476988,0-.49123246.39800117-.49123246,1.10141518v11.90145653c0,.72591812.1633155,1.07762513.53881256,1.07762513h.18646258v1.66337483h-3.65466661v-1.66337483h.23404269c.30476988,0,.44622425-.32791695.44622425-1.07762513v-11.05851707l-2.03822891,13.79951703h-2.34299879l-2.1089561-13.42466294v10.68366298c0,.74970818.14016842,1.07762513.46808538,1.07762513h.23532864v1.66337483h-3.42062392v-1.66337483h.25718977c.30476988,0,.4449383-.32791695.4449383-1.07762513v-11.90145653c0-.77349823-.14016842-1.10141518-.46808538-1.10141518h-.23404269v-1.66337483h4.826166Z" fill="#231815"/>
      <path d="M28.51033081,25.98797992h-3.84960938v-1.85888672h.33105469c.14941406,0,.34863281-.1015625.34863281-.97998047v-9.72949219l-1.85644531,12.56835938h-2.50976562l-.01367188-.08251953-1.91503906-12.18994141v9.43359375c0,.86865234.19824219.97998047.37109375.97998047h.33300781v1.85888672h-3.61621094v-1.85888672h.35449219c.14941406,0,.34765625-.1015625.34765625-.97998047v-11.90136719c0-.88476562-.1875-1.00390625-.37011719-1.00390625h-.33203125v-1.85839844h5.0078125l1.48535156,9.69140625,1.48535156-9.69140625h4.3984375v1.85839844h-.33203125c-.24316406,0-.39355469.38476562-.39355469,1.00390625v11.90136719c0,.86865234.23632812.97998047.44140625.97998047h.28417969v1.85888672ZM24.85603393,25.79266742h3.45898438v-1.46826172h-.08886719c-.5703125,0-.63671875-.67089844-.63671875-1.17529297v-11.90136719c0-.76220703.21484375-1.19921875.58886719-1.19921875h.13671875v-1.46777344h-4.03515625l-1.65332031,10.78417969-1.65332031-10.78417969h-4.64453125v1.46777344h.13671875c.49804688,0,.56542969.60644531.56542969,1.19921875v11.90136719c0,.54736328-.06152344,1.17529297-.54296875,1.17529297h-.15917969v1.46826172h3.22558594v-1.46826172h-.13769531c-.50195312,0-.56640625-.62792969-.56640625-1.17529297v-10.68359375l.19433594-.01513672,2.09570312,13.34228516h2.17578125l2.02539062-13.71630859.19433594.01416016v11.05859375c0,.54736328-.06152344,1.17529297-.54394531,1.17529297h-.13574219v1.46826172Z" fill="#fff"/>
    </g>
    <g>
      <path d="M35.0894741,8.48292431l2.06137599,15.01731058c.07072719.46872835.21089561.7265611.42179122.7265611h.14016842v1.66337483h-4.02887772v-1.66337483h.30348393c.2816228,0,.44622425-.25783274.39864414-.5857497l-.30476988-2.29606166h-2.46002014l-.30476988,2.31920874c-.04629416.35170701.14145437.56260262.49251841.56260262h.30476988v1.66337483h-3.13900112v-1.66337483h.11702134c.25718977,0,.4449383-.25783274.49123246-.67962396l1.99193476-15.06424771h3.51449819ZM33.82410044,19.51765132l-1.00818389-7.45014462-.96060379,7.45014462h1.96878768Z" fill="#231815"/>
      <path d="M37.8101355,25.98797992h-4.22363281v-1.85888672h.40136719c.08789062,0,.16308594-.03271484.21777344-.09521484.07519531-.08740234.10644531-.22558594.08398438-.37939453l-.29394531-2.21191406h-2.28808594l-.29394531,2.234375c-.01855469.14355469.00585938.25927734.07324219.33544922.06640625.07666016.17773438.11669922.32226562.11669922h.40234375v1.85888672h-3.33398438v-1.85888672h.21386719c.203125,0,.35449219-.22705078.39453125-.59277344l2.00292969-15.15087891h3.68554688l.01171875.08447266,2.06152344,15.01708984c.0625.41357422.17773438.64208984.32519531.64208984h.23730469v1.85888672ZM33.78181518,25.79266742h3.83300781v-1.46826172h-.04199219c-.26367188,0-.4375-.27246094-.51855469-.80957031l-2.04980469-14.93408203h-3.34375l-1.98144531,14.97900391c-.05078125.47070312-.27636719.76464844-.58789062.76464844h-.01855469v1.46826172h2.94335938v-1.46826172h-.20703125c-.20214844,0-.36425781-.06347656-.46972656-.18310547-.10449219-.12011719-.14550781-.28955078-.11914062-.48974609l.31542969-2.40429688h2.63183594l.01074219.08496094.3046875,2.29589844c.03027344.20849609-.01757812.40380859-.12988281.53369141-.09179688.10498047-.22070312.16259766-.36523438.16259766h-.20605469v1.46826172ZM33.9351355,19.61542132h-2.19140625l.01464844-.11035156,1.05566406-8.18261719,1.12109375,8.29296875ZM31.9663855,19.42010882h1.74609375l-.89453125-6.60742188-.8515625,6.60742188Z" fill="#fff"/>
    </g>
    <g>
      <path d="M41.8111287,16.6827771l2.22597745-5.73983266c.16460145-.42179122.07072719-.79664531-.21089561-.79664531h-.14016842v-1.66337483h3.23287539v1.66337483h-.35106403c-.25847572,0-.49251841.25783274-.74970818.89051957l-1.75789207,4.45131192,2.64776867,7.84814578c.25718977.7265611.39864414.89051957.63268683.89051957h.11702134v1.66337483h-4.09960491v-1.66337483h.14016842c.35106403,0,.37549706-.30476988.14016842-1.05447805l-1.8273333-5.50578997v5.48264289c0,.72591812.16460145,1.07762513.49251841,1.07762513h.11702134v1.66337483h-4.09960491v-1.66337483h.14016842c.39864414,0,.58510672-.32791695.58510672-1.07762513v-11.90145653c0-.65647688-.21089561-1.10141518-.51437954-1.10141518h-.21089561v-1.66337483h4.26292041v1.66337483h-.1633155c-.42179122,0-.60953975.32791695-.60953975,1.10141518v5.43506278Z" fill="#231815"/>
      <path d="M47.55525268,25.98797992h-4.29492188v-1.85888672h.23828125c.10449219,0,.140625-.03173828.15820312-.05566406.11328125-.15478516-.05566406-.69433594-.11132812-.87158203l-1.63671875-4.93115234v4.87841797c0,.65039062.1328125.97998047.39453125.97998047h.21484375v1.85888672h-4.29492188v-1.85888672h.23828125c.2265625,0,.48730469-.11132812.48730469-.97998047v-11.90136719c0-.58154297-.17578125-1.00390625-.41699219-1.00390625h-.30859375v-1.85839844h4.45800781v1.85839844h-.26074219c-.25292969,0-.51171875.11914062-.51171875,1.00390625v4.91357422l2.03710938-5.25341797c.09277344-.23876953.10058594-.47070312.01757812-.59130859-.03320312-.04882812-.078125-.07275391-.13769531-.07275391h-.23730469v-1.85839844h3.42773438v1.85839844h-.44824219c-.21972656,0-.42871094.26367188-.65917969.82958984l-1.74511719,4.41699219,2.63671875,7.81445312c.24804688.70068359.37207031.82421875.54003906.82421875h.21484375v1.85888672ZM43.45564331,25.79266742h3.90429688v-1.46826172h-.01953125c-.29882812,0-.46191406-.21435547-.72460938-.95556641l-2.65917969-7.88330078.01269531-.03320312,1.7578125-4.45117188c.26855469-.65917969.52734375-.95263672.84082031-.95263672h.25292969v-1.46777344h-3.03710938v1.46777344h.04199219c.12304688,0,.22949219.05615234.29882812.15771484.12011719.17529297.12109375.47119141.00292969.77246094l-2.38867188,6.16064453,1.9921875,6.00244141c.18164062.57763672.20507812.88085938.08300781,1.04736328-.06640625.08984375-.171875.13525391-.31542969.13525391h-.04296875v1.46826172ZM38.41853393,25.79266742h3.90429688v-1.46826172h-.01953125c-.58984375,0-.58984375-.88476562-.58984375-1.17529297v-11.90136719c0-.55810547.08007812-1.19921875.70703125-1.19921875h.06542969v-1.46777344h-4.06738281v1.46777344h.11328125c.36621094,0,.61230469.48193359.61230469,1.19921875v11.90136719c0,.50439453-.07128906,1.17529297-.68261719,1.17529297h-.04296875v1.46826172Z" fill="#fff"/>
    </g>
    <g>
      <path d="M55.68008696,8.48292431v4.77922887h-1.75660612v-.98375086c0-1.54635348-.42179122-1.94435465-1.85176633-1.94435465h-.28033685v5.78676979h.70212807c.60953975,0,.77285525-.25783274.77285525-1.21843653v-.46872835h1.64087072v5.43570576h-1.64087072v-.35170701c0-1.24158361-.14016842-1.56950056-.77285525-1.56950056h-.70212807v6.09089669h.53881256c1.54571051,0,1.96750173-.39800117,1.96750173-2.01443886v-.93745671h1.75660612v4.80301893h-7.8249987v-1.66337483h.11702134c.39864414,0,.58639267-.35170701.58639267-1.07762513v-11.90145653c0-.7265611-.18774853-1.10141518-.56195964-1.10141518h-.14145437v-1.66337483h7.45078759Z" fill="#231815"/>
      <path d="M56.15193237,25.98797992h-8.02050781v-1.85888672h.21484375c.20996094,0,.48925781-.1015625.48925781-.97998047v-11.90136719c0-.66601562-.15625-1.00390625-.46484375-1.00390625h-.23925781v-1.85839844h7.64648438v4.97460938h-1.95214844v-1.08154297c0-1.46679688-.36035156-1.84667969-1.75390625-1.84667969h-.18261719v5.59130859h.60449219c.51464844,0,.67480469-.15429688.67480469-1.12060547v-.56640625h1.8359375v5.63085938h-1.8359375v-.44921875c0-1.27880859-.15234375-1.47216797-.67480469-1.47216797h-.60449219v5.89599609h.44140625c1.50195312,0,1.86914062-.37597656,1.86914062-1.91699219v-1.03515625h1.95214844v4.99853516ZM48.32673706,25.79266742h7.62988281v-4.60791016h-1.56152344v.83984375c0,1.65820312-.44335938,2.11230469-2.06445312,2.11230469h-.63671875v-6.28662109h.79980469c.73828125,0,.87011719.43701172.87011719,1.66748047v.25390625h1.4453125v-5.24023438h-1.4453125v.37109375c0,.89160156-.12988281,1.31591797-.87011719,1.31591797h-.79980469v-5.98193359h.37792969c1.51171875,0,1.94921875.45800781,1.94921875,2.04199219v.88623047h1.56152344v-4.58398438h-7.25585938v1.46777344h.04394531c.43847656,0,.66015625.40332031.66015625,1.19921875v11.90136719c0,.29052734,0,1.17529297-.68457031,1.17529297h-.01953125v1.46826172Z" fill="#fff"/>
    </g>
    <g>
      <path d="M56.82715333,27.97533686c.93617076-.63268683,1.31166782-1.14770934,1.31166782-1.78039617,0-.2816228-.14016842-.46872835-.37549706-.56260262-.70212807-.09387427-1.03004502-.53881256-1.03004502-1.33545787,0-1.05383508.56195964-1.63958477,1.49941635-1.63958477,1.10077221,0,1.71031196.77285525,1.71031196,2.15525026,0,1.66337483-.74970818,2.90495843-2.50760024,3.98258356l-.6082538-.81979239Z" fill="#231815"/>
      <path d="M57.40974487,28.92499164l-.72265625-.97363281.08496094-.05712891c.90136719-.60888672,1.26953125-1.1015625,1.26953125-1.69921875,0-.22998047-.10546875-.38867188-.31445312-.47167969-.71679688-.09326172-1.09179688-.57519531-1.09179688-1.42626953,0-1.08789062.59765625-1.73730469,1.59765625-1.73730469,1.1484375,0,1.80761719.82128906,1.80761719,2.25292969,0,1.72851562-.78808594,2.98242188-2.5546875,4.06542969l-.07617188.046875ZM56.96540893,27.9987221l.49414062.66601562c1.64941406-1.03271484,2.38574219-2.22363281,2.38574219-3.85205078,0-1.32714844-.57226562-2.05761719-1.61230469-2.05761719-.89160156,0-1.40234375.56201172-1.40234375,1.54199219,0,.75830078.30078125,1.15234375.9453125,1.23876953.30566406.11816406.4609375.35058594.4609375.65917969,0,.65136719-.37011719,1.17871094-1.27148438,1.80371094Z" fill="#fff"/>
    </g>
    <g>
      <path d="M69.19540929,9.23263248l.04758011-.74970817h1.56885759v4.61527039h-1.73345904v-1.52256343c-.1633155-.93745671-.51566549-1.33545787-1.1714994-1.33545787-.67898099,0-.98375086.49187543-.98375086,1.68652191,0,1.33545787.49251841,2.03822891,1.89806049,3.60837245,2.08452307,2.31920874,2.57704148,3.37368679,2.57704148,5.83370692,0,3.09206399-1.12520524,4.75543882-3.16343415,4.75543882-.98375086,0-1.71031196-.35106403-2.24912453-1.14770934l-.04629416.91366665h-1.59329062v-5.2711043h1.75660612v1.75660612c.23532864,1.05447805.74970818,1.68716488,1.35924793,1.68716488.84358244,0,1.28852074-.67962396,1.28852074-2.01508184,0-1.59329062-.32791695-2.31920874-2.13210318-4.33429057-1.73345904-1.94435465-2.2722716-3.06891691-2.2722716-5.20102009,0-2.71785288,1.14835232-4.26356339,3.04512686-4.26356339.7741412,0,1.38239501.32791695,1.80418623.98375086Z" fill="#231815"/>
      <path d="M68.23494018,26.22186664c-.93945312,0-1.63476562-.30908203-2.16503906-.96826172l-.03808594.734375h-1.78320312v-5.46679688h1.95214844v1.85449219c.21972656.97216797.703125,1.58935547,1.26074219,1.58935547.79101562,0,1.19140625-.64501953,1.19140625-1.91748047,0-1.59277344-.35449219-2.31103516-2.10644531-4.26904297-1.80371094-2.02294922-2.29785156-3.15478516-2.29785156-5.26611328,0-2.73095703,1.17480469-4.36132812,3.14257812-4.36132812.71777344,0,1.296875.26953125,1.72460938.80273438l.03515625-.56835938h1.75878906v4.81054688h-1.92871094v-1.62011719c-.15429688-.87451172-.46582031-1.23828125-1.07421875-1.23828125-.45996094,0-.88574219.19238281-.88574219,1.58886719,0,1.32617188.51367188,2.02490234,1.87207031,3.54345703,2.11621094,2.35351562,2.60253906,3.45605469,2.60253906,5.89892578,0,3.12939453-1.15820312,4.85302734-3.26074219,4.85302734ZM65.90290893,24.67987445l.1640625.24169922c.50976562.75390625,1.19921875,1.10498047,2.16796875,1.10498047,1.9765625,0,3.06542969-1.65429688,3.06542969-4.65771484,0-2.40966797-.453125-3.43408203-2.55175781-5.76855469-1.39550781-1.55908203-1.92285156-2.27929688-1.92285156-3.67382812,0-1.23388672.33300781-1.78417969,1.08105469-1.78417969.70507812,0,1.09667969.43701172,1.26757812,1.41699219l.00195312,1.44140625h1.53808594v-4.41992188h-1.37988281l-.05957031.95458984-.16113281-.25c-.40136719-.62304688-.98046875-.93896484-1.72265625-.93896484-1.87304688,0-2.94726562,1.51855469-2.94726562,4.16601562,0,2.05273438.48339844,3.15673828,2.24804688,5.13623047,1.79296875,2.00390625,2.15625,2.74414062,2.15625,4.39892578,0,1.74609375-.75390625,2.11279297-1.38671875,2.11279297-.6640625,0-1.20703125-.65917969-1.45410156-1.76318359l-.00195312-1.68066406h-1.56152344v5.07617188h1.40234375l.05664062-1.11279297Z" fill="#fff"/>
    </g>
    <g>
      <path d="M79.69003779,17.17465253c0,7.54401888-.60953975,8.94956097-3.79483503,8.94956097-3.18658123,0-3.7729739-1.33545787-3.7729739-8.94956097,0-7.59031304.58639267-8.92577091,3.7729739-8.92577091,3.20972831,0,3.79483503,1.38175203,3.79483503,8.92577091ZM74.91016595,17.17465253c0,6.32558235.35234998,7.00520632.98503681,7.00520632.84229649,0,1.03004502-.67962396,1.03004502-7.00520632s-.18774853-6.98141626-1.03004502-6.98141626c-.84358244,0-.98503681.65583391-.98503681,6.98141626Z" fill="#231815"/>
      <path d="M75.89509643,26.22186664c-3.25488281,0-3.87011719-1.4375-3.87011719-9.04736328,0-7.58984375.61523438-9.0234375,3.87011719-9.0234375,3.27441406,0,3.89257812,1.43359375,3.89257812,9.0234375,0,7.60986328-.61816406,9.04736328-3.89257812,9.04736328ZM75.89509643,8.34637835c-3.125,0-3.67480469,1.31982422-3.67480469,8.828125,0,7.52832031.54980469,8.85205078,3.67480469,8.85205078,3.11035156,0,3.69726562-1.40625,3.69726562-8.85205078,0-7.50830078-.55273438-8.828125-3.69726562-8.828125ZM75.89509643,24.2775307c-.73632812,0-1.08300781-.70068359-1.08300781-7.10302734,0-6.28515625.12109375-7.07910156,1.08300781-7.07910156.92871094,0,1.12792969.60986328,1.12792969,7.07910156,0,6.49072266-.19921875,7.10302734-1.12792969,7.10302734ZM75.89509643,10.29071429c-.73046875,0-.88769531.59326172-.88769531,6.88378906,0,6.39892578.38476562,6.90771484.88769531,6.90771484.74414062,0,.93261719-.67871094.93261719-6.90771484,0-6.20751953-.18847656-6.88378906-.93261719-6.88378906Z" fill="#fff"/>
    </g>
    <g>
      <path d="M85.00743625,8.48292431v1.66337483h-.25847572c-.37421111,0-.63268683.4449383-.63268683,1.07762513v12.81512319h.35234998c1.31166782,0,1.63958477-.32791695,1.63958477-2.01443886v-1.05447805h1.73345904v4.92004027h-7.28618614v-1.66337483h.21089561c.35106403,0,.51566549-.35170701.51566549-1.07762513v-11.92524659c0-.70277104-.18774853-1.07762513-.53881256-1.07762513h-.18774853v-1.66337483h4.45195489Z" fill="#231815"/>
      <path d="M87.93904175,25.98797992h-7.48144531v-1.85888672h.30859375c.10351562,0,.41796875,0,.41796875-.97998047v-11.92529297c0-.36621094-.05761719-.97998047-.44140625-.97998047h-.28515625v-1.85839844h4.64746094v1.85839844h-.35644531c-.31542969,0-.53515625.40283203-.53515625.97998047v12.71777344h.25488281c1.21386719,0,1.54199219-.23876953,1.54199219-1.91699219v-1.15234375h1.92871094v5.11572266ZM80.65290893,25.79266742h7.09082031v-4.72509766h-1.53808594v.95703125c0,1.69775391-.34082031,2.11230469-1.73730469,2.11230469h-.45019531v-12.91308594c0-.69189453.30078125-1.17529297.73046875-1.17529297h.16113281v-1.46777344h-4.25683594v1.46777344h.08984375c.29003906,0,.63671875.20410156.63671875,1.17529297v11.92529297c0,.29052734,0,1.17529297-.61328125,1.17529297h-.11328125v1.46826172Z" fill="#fff"/>
    </g>
    <g>
      <path d="M89.1764824,25.89017081l-2.06137599-15.01731058c-.07072719-.46872835-.21089561-.7265611-.42179122-.7265611h-.14016842v-1.66337483h4.02887772v1.66337483h-.30348393c-.2816228,0-.44622425.25783274-.39864414.5857497l1.56885759,11.5503925,1.49941635-11.57418255c.04758011-.35106403-.14016842-.56195964-.49123246-.56195964h-.30476988v-1.66337483h3.13900112v1.66337483h-.11702134c-.25718977,0-.4449383.25783274-.49123246.67962396l-1.99193476,15.06424771h-3.51449819Z" fill="#231815"/>
      <path d="M92.77693237,25.98797992h-3.68554688l-.01171875-.08447266-2.06152344-15.01757812c-.0625-.41357422-.17773438-.64208984-.32519531-.64208984h-.23730469v-1.85839844h4.22363281v1.85839844h-.40039062c-.08886719,0-.1640625.03320312-.21875.09570312-.07519531.08691406-.10644531.22509766-.08398438.37890625l1.47070312,10.82177734,1.40429688-10.84472656c.01953125-.14306641-.00585938-.25878906-.07226562-.33496094s-.17773438-.11669922-.32226562-.11669922h-.40234375v-1.85839844h3.33496094v1.85839844h-.21484375c-.203125,0-.35449219.22705078-.39453125.59277344l-2.00292969,15.15136719ZM89.26130737,25.79266742h3.34375l1.98144531-14.97949219c.05078125-.47070312.27636719-.76464844.58789062-.76464844h.01953125v-1.46777344h-2.94433594v1.46777344h.20703125c.20214844,0,.36523438.06347656.46972656.18359375s.14550781.2890625.11816406.48925781l-1.59375,12.30322266-1.66796875-12.27929688c-.03027344-.20898438.01757812-.40380859.12988281-.53369141.09179688-.10498047.22167969-.16308594.36621094-.16308594h.20507812v-1.46777344h-3.83300781v1.46777344h.04199219c.26367188,0,.4375.27246094.51855469.80957031l2.04980469,14.93457031Z" fill="#fff"/>
    </g>
    <g>
      <path d="M103.34892459,8.48292431v4.77922887h-1.75660612v-.98375086c0-1.54635348-.42179122-1.94435465-1.85048038-1.94435465h-.2816228v5.78676979h.70341402c.6082538,0,.77285525-.25783274.77285525-1.21843653v-.46872835h1.63958477v5.43570576h-1.63958477v-.35170701c0-1.24158361-.14016842-1.56950056-.77285525-1.56950056h-.70341402v6.09089669h.53881256c1.54699646,0,1.96878768-.39800117,1.96878768-2.01443886v-.93745671h1.75660612v4.80301893h-7.8249987v-1.66337483h.11702134c.39864414,0,.58510672-.35170701.58510672-1.07762513v-11.90145653c0-.7265611-.18646258-1.10141518-.56195964-1.10141518h-.14016842v-1.66337483h7.44950164Z" fill="#231815"/>
      <path d="M103.82185425,25.98797992h-8.02050781v-1.85888672h.21484375c.20898438,0,.48730469-.1015625.48730469-.97998047v-11.90136719c0-.66601562-.15625-1.00390625-.46386719-1.00390625h-.23828125v-1.85839844h7.64550781v4.97460938h-1.95214844v-1.08154297c0-1.46679688-.36035156-1.84667969-1.75292969-1.84667969h-.18359375v5.59130859h.60546875c.51464844,0,.67480469-.15429688.67480469-1.12060547v-.56640625h1.83496094v5.63085938h-1.83496094v-.44921875c0-1.27880859-.15234375-1.47216797-.67480469-1.47216797h-.60546875v5.89599609h.44042969c1.50390625,0,1.87109375-.37597656,1.87109375-1.91699219v-1.03515625h1.95214844v4.99853516ZM95.99665893,25.79266742h7.62988281v-4.60791016h-1.56152344v.83984375c0,1.65820312-.44433594,2.11230469-2.06640625,2.11230469h-.63574219v-6.28662109h.80078125c.73828125,0,.87011719.43701172.87011719,1.66748047v.25390625h1.44433594v-5.24023438h-1.44433594v.37109375c0,.89160156-.12988281,1.31591797-.87011719,1.31591797h-.80078125v-5.98193359h.37890625c1.51074219,0,1.94824219.45800781,1.94824219,2.04199219v.88623047h1.56152344v-4.58398438h-7.25488281v1.46777344h.04296875c.4375,0,.65917969.40332031.65917969,1.19921875v11.90136719c0,.29052734,0,1.17529297-.68261719,1.17529297h-.01953125v1.46826172Z" fill="#fff"/>
    </g>
    <g>
      <path d="M104.49727691,27.97533686c.93617076-.63268683,1.31166782-1.14770934,1.31166782-1.78039617,0-.2816228-.14016842-.46872835-.37549706-.56260262-.70212807-.09387427-1.03004502-.53881256-1.03004502-1.33545787,0-1.05383508.56195964-1.63958477,1.49941635-1.63958477,1.10077221,0,1.71031196.77285525,1.71031196,2.15525026,0,1.66337483-.74970818,2.90495843-2.50760024,3.98258356l-.6082538-.81979239Z" fill="#231815"/>
      <path d="M105.07966675,28.92499164l-.72070312-.97363281.08398438-.05712891c.90136719-.609375,1.26855469-1.1015625,1.26855469-1.69921875,0-.22998047-.10546875-.38867188-.31445312-.47167969-.71582031-.09326172-1.09082031-.57519531-1.09082031-1.42626953,0-1.08789062.59667969-1.73730469,1.59667969-1.73730469,1.1484375,0,1.80761719.82128906,1.80761719,2.25292969,0,1.72949219-.78808594,2.98339844-2.5546875,4.06542969l-.07617188.046875ZM104.63630737,27.9987221l.49414062.66601562c1.6484375-1.03173828,2.38476562-2.22314453,2.38476562-3.85205078,0-1.32714844-.57226562-2.05761719-1.61230469-2.05761719-.890625,0-1.40136719.56201172-1.40136719,1.54199219,0,.75878906.29980469,1.15234375.94433594,1.23876953.30566406.11816406.4609375.35058594.4609375.65917969,0,.65136719-.36914062,1.17822266-1.27050781,1.80371094Z" fill="#fff"/>
    </g>
  </g>
  <g>
    <g>
      <path d="M41.24916905,34.23855069c2.97568562,0,3.65595256.91366665,3.65595256,5.03706161,0,4.40437478-.79728828,5.59966423-3.70224672,5.59966423h-.70341402v4.0295207c0,.72591812.18774853,1.07762513.58639267,1.07762513h.25718977v1.66337483h-4.38122771v-1.66337483h.18774853c.35106403,0,.51566549-.35170701.51566549-1.07762513v-11.90145653c0-.7265611-.16460145-1.10141518-.49251841-1.10141518h-.21089561v-1.66337483h4.28735344ZM40.85181086,43.04730026c1.03004502,0,1.26537366-.67898099,1.26537366-3.53764526,0-2.78793709-.23532864-3.41998095-1.26537366-3.41998095h-.35234998v6.95762621h.35234998Z" fill="#231815"/>
      <path d="M41.44099487,51.74335101h-4.57714844v-1.85839844h.28613281c.10351562,0,.41796875,0,.41796875-.97998047v-11.90185547c0-.45800781-.06835938-1.00341797-.39550781-1.00341797h-.30859375v-1.85888672h4.38574219c3.05175781,0,3.75292969.95996094,3.75292969,5.13476562,0,4.47265625-.81640625,5.69726562-3.79980469,5.69726562h-.60546875v3.93212891c0,.87841797.27832031.97998047.48828125.97998047h.35546875v1.85839844ZM37.05915893,51.54803851h4.18652344v-1.46777344h-.16015625c-.68359375,0-.68359375-.88476562-.68359375-1.17529297v-4.12744141h.80078125c2.86328125,0,3.60449219-1.13134766,3.60449219-5.50195312,0-4.0625-.63183594-4.93945312-3.55761719-4.93945312h-4.19042969v1.46826172h.11328125c.39160156,0,.59082031.40332031.59082031,1.19873047v11.90185547c0,.29052734,0,1.17529297-.61328125,1.17529297h-.09082031v1.46777344ZM40.85212768,43.1447182h-.45019531v-7.15283203h.45019531c1.17480469,0,1.36230469.83544922,1.36230469,3.51757812,0,2.72753906-.19726562,3.63525391-1.36230469,3.63525391ZM40.59724487,42.9494057h.25488281c.88964844,0,1.16699219-.47460938,1.16699219-3.43994141,0-2.88623047-.26269531-3.32226562-1.16699219-3.32226562h-.25488281v6.76220703Z" fill="#fff"/>
    </g>
    <g>
      <path d="M49.77629582,34.23855069v1.66337483h-.18774853c-.32791695,0-.49123246.37485409-.49123246,1.10141518v10.72995714c0,1.66337483.28033685,2.20218739,1.14706637,2.20218739.89116255,0,1.19464647-.56195964,1.19464647-2.20218739v-10.72995714c0-.70341402-.1633155-1.10141518-.46808538-1.10141518h-.18774853v-1.66337483h3.35118268v1.66337483h-.18774853c-.35106403,0-.51566549.37485409-.51566549,1.10141518v10.58914574c0,3.23351836-.84358244,4.28735344-3.443771,4.28735344-2.74164293,0-3.74854087-1.10077221-3.74854087-4.24041631v-10.63608287c0-.77349823-.14016842-1.10141518-.46937133-1.10141518h-.23404269v-1.66337483h4.24105928Z" fill="#231815"/>
      <path d="M49.98689331,51.97772601c-2.80371094,0-3.84570312-1.17578125-3.84570312-4.33837891v-10.63623047c0-.88427734-.18847656-1.00341797-.37207031-1.00341797h-.33105469v-1.85888672h4.43554688v1.85888672h-.28515625c-.32519531,0-.39355469.54541016-.39355469,1.00341797v10.72998047c0,1.78955078.33886719,2.10449219,1.04980469,2.10449219.72753906,0,1.09667969-.32568359,1.09667969-2.10449219v-10.72998047c0-.63769531-.13476562-1.00341797-.37011719-1.00341797h-.28613281v-1.85888672h3.546875v1.85888672h-.28515625c-.27734375,0-.41796875.33740234-.41796875,1.00341797v10.58935547c0,3.27880859-.89355469,4.38525391-3.54199219,4.38525391ZM45.63337768,35.80438617h.13574219c.5,0,.56738281.60595703.56738281,1.19873047v10.63623047c0,3.05908203.95507812,4.14306641,3.65039062,4.14306641,2.53320312,0,3.34667969-1.01806641,3.34667969-4.18994141v-10.58935547c0-.29638672,0-1.19873047.61328125-1.19873047h.08984375v-1.46826172h-3.15625v1.46826172h.09082031c.2578125,0,.56542969.20800781.56542969,1.19873047v10.72998047c0,1.45654297-.21191406,2.29980469-1.29199219,2.29980469-1.046875,0-1.24511719-.80810547-1.24511719-2.29980469v-10.72998047c0-.79541016.19824219-1.19873047.58886719-1.19873047h.08984375v-1.46826172h-4.04492188v1.46826172Z" fill="#fff"/>
    </g>
    <g>
      <path d="M62.21527898,34.23855069v1.4756263l-4.75543882,14.08049685h1.00689794c1.42868916,0,1.94435465-.5857497,1.94435465-2.06137599v-1.00754092h1.73345904v4.92004027h-7.49708175v-2.08516605l4.52268208-13.4709571h-.70341402c-1.38239501,0-1.87491341.53881256-1.87491341,2.06137599v1.00754092h-1.73345904v-4.92004027h7.35691333Z" fill="#231815"/>
      <path d="M62.24177612,51.74335101h-7.69238281l.00488281-2.21386719,4.48046875-13.34228516h-.56835938c-1.32910156,0-1.77734375.49560547-1.77734375,1.96386719v1.10498047h-1.92871094v-5.11523438h7.55273438l-.00488281,1.60449219-4.71289062,13.95166016h.87109375c1.36328125,0,1.84667969-.51367188,1.84667969-1.96386719v-1.10498047h1.92871094v5.11523438ZM54.74470581,51.54803851h7.30175781v-4.72460938h-1.53808594v.90966797c0,1.55371094-.57226562,2.15917969-2.04199219,2.15917969h-1.14257812l.04296875-.12890625,4.75097656-14.06542969v-1.36181641h-7.16210938v4.72460938h1.53808594v-.90966797c0-1.57373047.53515625-2.15917969,1.97265625-2.15917969h.83984375l-.04296875.12890625-4.51855469,13.45605469v1.97119141Z" fill="#fff"/>
    </g>
    <g>
      <path d="M70.39005577,34.23855069v1.4756263l-4.75543882,14.08049685h1.00689794c1.42997511,0,1.9456406-.5857497,1.9456406-2.06137599v-1.00754092h1.73345904v4.92004027h-7.49708175v-2.08516605l4.52139613-13.4709571h-.70341402c-1.38110906,0-1.87362746.53881256-1.87362746,2.06137599v1.00754092h-1.73345904v-4.92004027h7.35562738Z" fill="#231815"/>
      <path d="M70.41853393,51.74335101h-7.69238281l.00488281-2.21386719,4.47851562-13.34228516h-.56835938c-1.32714844,0-1.77539062.49560547-1.77539062,1.96386719v1.10498047h-1.92871094v-5.11523438h7.55078125l-.00488281,1.60449219-4.71289062,13.95166016h.87109375c1.36523438,0,1.84863281-.51367188,1.84863281-1.96386719v-1.10498047h1.92871094v5.11523438ZM62.92146362,51.54803851h7.30175781v-4.72460938h-1.53808594v.90966797c0,1.55371094-.57324219,2.15917969-2.04394531,2.15917969h-1.14257812l.04296875-.12890625,4.75097656-14.06542969v-1.36181641h-7.16015625v4.72460938h1.53808594v-.90966797c0-1.57373047.53417969-2.15917969,1.97070312-2.15917969h.83984375l-.04296875.12890625-4.51660156,13.45605469v1.97119141Z" fill="#fff"/>
    </g>
    <g>
      <path d="M75.54413872,34.23855069v1.66337483h-.25847572c-.37421111,0-.63268683.4449383-.63268683,1.07762513v12.81512319h.35234998c1.31166782,0,1.63958477-.32791695,1.63958477-2.01443886v-1.05447805h1.73345904v4.92004027h-7.28618614v-1.66337483h.21089561c.35106403,0,.51566549-.35170701.51566549-1.07762513v-11.92524659c0-.70277104-.18774853-1.07762513-.53881256-1.07762513h-.18774853v-1.66337483h4.45195489Z" fill="#231815"/>
      <path d="M78.47615112,51.74335101h-7.48144531v-1.85839844h.30859375c.10351562,0,.41796875,0,.41796875-.97998047v-11.92529297c0-.44726562-.07617188-.97998047-.44140625-.97998047h-.28515625v-1.85888672h4.64746094v1.85888672h-.35644531c-.31542969,0-.53515625.40283203-.53515625.97998047v12.71728516h.25488281c1.21386719,0,1.54199219-.23828125,1.54199219-1.91650391v-1.15234375h1.92871094v5.11523438ZM71.19001831,51.54803851h7.09082031v-4.72460938h-1.53808594v.95703125c0,1.69726562-.34082031,2.11181641-1.73730469,2.11181641h-.45019531v-12.91259766c0-.69189453.30078125-1.17529297.73046875-1.17529297h.16113281v-1.46826172h-4.25683594v1.46826172h.08984375c.29003906,0,.63671875.20410156.63671875,1.17529297v11.92529297c0,.29052734,0,1.17529297-.61328125,1.17529297h-.11328125v1.46777344Z" fill="#fff"/>
    </g>
    <g>
      <path d="M86.60072687,34.23855069v4.77922887h-1.75660612v-.98375086c0-1.54635348-.42179122-1.94435465-1.85176633-1.94435465h-.28033685v5.78676979h.70212807c.60953975,0,.77285525-.25783274.77285525-1.21843653v-.46872835h1.64087072v5.43570576h-1.64087072v-.35170701c0-1.24158361-.14016842-1.56950056-.77285525-1.56950056h-.70212807v6.09089669h.53881256c1.54571051,0,1.96750173-.39800117,1.96750173-2.01443886v-.93745671h1.75660612v4.80301893h-7.8249987v-1.66337483h.11702134c.39864414,0,.58639267-.35170701.58639267-1.07762513v-11.90145653c0-.7265611-.18774853-1.10141518-.56195964-1.10141518h-.14145437v-1.66337483h7.45078759Z" fill="#231815"/>
      <path d="M87.07283081,51.74335101h-8.02050781v-1.85839844h.21484375c.20996094,0,.48828125-.1015625.48828125-.97998047v-11.90185547c0-.66601562-.15625-1.00341797-.46386719-1.00341797h-.23925781v-1.85888672h7.64648438v4.97460938h-1.95214844v-1.08154297c0-1.46679688-.36035156-1.84667969-1.75390625-1.84667969h-.18261719v5.59179688h.60449219c.51464844,0,.67480469-.15478516.67480469-1.12109375v-.56640625h1.8359375v5.63134766h-1.8359375v-.44970703c0-1.27880859-.15234375-1.47167969-.67480469-1.47167969h-.60449219v5.89550781h.44042969c1.50292969,0,1.87011719-.37597656,1.87011719-1.91650391v-1.03515625h1.95214844v4.99804688ZM79.2476355,51.54803851h7.62988281v-4.60742188h-1.56152344v.83984375c0,1.65771484-.44433594,2.11181641-2.06542969,2.11181641h-.63574219v-6.28613281h.79980469c.73828125,0,.87011719.43701172.87011719,1.66699219v.25439453h1.4453125v-5.24072266h-1.4453125v.37109375c0,.89208984-.12988281,1.31640625-.87011719,1.31640625h-.79980469v-5.98242188h.37792969c1.51171875,0,1.94921875.45800781,1.94921875,2.04199219v.88623047h1.56152344v-4.58398438h-7.25585938v1.46826172h.04394531c.4375,0,.65917969.40332031.65917969,1.19873047v11.90185547c0,.29052734,0,1.17529297-.68359375,1.17529297h-.01953125v1.46777344Z" fill="#fff"/>
    </g>
  </g>
  <g>
    <g>
      <path d="M19.93328104,7.71006905l1.56950056,10.23872468,1.57014354-10.23872468h4.21662625v1.6640178h-.23404269c-.30476988,0-.49187543.39735819-.49187543,1.10077221v11.90145653c0,.7265611.16395848,1.07762513.53881256,1.07762513h.18710556v1.6640178h-3.65466661v-1.6640178h.23404269c.30476988,0,.44558127-.32791695.44558127-1.07762513v-11.05787409l-2.03822891,13.79951703h-2.34299879l-2.10831313-13.42530591v10.68366298c0,.74970817.14016842,1.07762513.46808538,1.07762513h.23468566v1.6640178h-3.42062392v-1.6640178h.25783274c.3041269,0,.4449383-.32791695.4449383-1.07762513v-11.90145653c0-.77285525-.1408114-1.10077221-.46872835-1.10077221h-.23404269v-1.6640178h4.826166Z" fill="#fff"/>
      <path d="M27.38728393,25.21551898h-3.84960938v-1.859375h.33105469c.14941406,0,.34765625-.1015625.34765625-.97998047v-9.72851562l-1.85644531,12.56787109h-2.50976562l-.01367188-.08251953-1.9140625-12.18994141v9.43310547c0,.86865234.19824219.97998047.37109375.97998047h.33203125v1.859375h-3.61621094v-1.859375h.35546875c.14941406,0,.34765625-.1015625.34765625-.97998047v-11.90136719c0-.88378906-.1875-1.00292969-.37109375-1.00292969h-.33203125v-1.859375h5.0078125l1.48535156,9.69238281,1.48632812-9.69238281h4.3984375v1.859375h-.33203125c-.24316406,0-.39355469.38427734-.39355469,1.00292969v11.90136719c0,.86865234.23535156.97998047.44042969.97998047h.28515625v1.859375ZM23.73298706,25.02020648h3.45898438v-1.46875h-.08984375c-.56933594,0-.63574219-.67089844-.63574219-1.17529297v-11.90136719c0-.76123047.21484375-1.19824219.58886719-1.19824219h.13671875v-1.46875h-4.03515625l-1.65429688,10.78515625-1.65332031-10.78515625h-4.64453125v1.46875h.13671875c.49902344,0,.56640625.60595703.56640625,1.19824219v11.90136719c0,.54736328-.06152344,1.17529297-.54296875,1.17529297h-.16015625v1.46875h3.22558594v-1.46875h-.13671875c-.50195312,0-.56640625-.62792969-.56640625-1.17529297v-10.68359375l.19433594-.01513672,2.09472656,13.34277344h2.17578125l2.02539062-13.71582031.19433594.01416016v11.05761719c0,.54736328-.06152344,1.17529297-.54296875,1.17529297h-.13574219v1.46875Z" fill="#231815"/>
    </g>
    <g>
      <path d="M33.96555481,7.71006905l2.06137599,15.01731058c.07072719.46937133.21089561.7265611.42179122.7265611h.1408114v1.6640178h-4.0295207v-1.6640178h.3041269c.2816228,0,.44558127-.25718977.39864414-.58510672l-.30476988-2.29670463h-2.46002014l-.30476988,2.31985171c-.04629416.35106403.1408114.56195964.49251841.56195964h.3041269v1.6640178h-3.13900112v-1.6640178h.11702134c.25783274,0,.4449383-.25718977.49187543-.67898099l1.99129178-15.06489069h3.51449819ZM32.70018115,18.74479607l-1.00754092-7.44950164-.96060379,7.44950164h1.9681447Z" fill="#fff"/>
      <path d="M36.68708862,25.21551898h-4.22460938v-1.859375h.40136719c.08886719,0,.1640625-.03320312.21875-.09570312.07519531-.08642578.10546875-.22460938.08398438-.37792969l-.29492188-2.21289062h-2.28808594l-.29394531,2.23486328c-.01855469.14306641.00683594.25927734.07324219.33544922.06738281.07617188.17871094.11621094.32324219.11621094h.40136719v1.859375h-3.33398438v-1.859375h.21484375c.20214844,0,.35351562-.2265625.39453125-.59179688l2.00195312-15.15185547h3.68554688l.01171875.08447266,2.06152344,15.01708984c.06152344.41357422.17773438.64208984.32519531.64208984h.23828125v1.859375ZM32.65779175,25.02020648h3.83398438v-1.46875h-.04296875c-.26367188,0-.4375-.27246094-.51855469-.80957031l-2.04980469-14.93408203h-3.34375l-1.98046875,14.97998047c-.05175781.47021484-.27734375.76367188-.58789062.76367188h-.01953125v1.46875h2.94335938v-1.46875h-.20605469c-.20214844,0-.36425781-.06347656-.46972656-.18310547-.10449219-.11914062-.14648438-.28857422-.12011719-.48925781l.31542969-2.40478516h2.63183594l.01074219.08496094.30566406,2.296875c.03027344.20849609-.01757812.40283203-.12988281.53222656-.09082031.10498047-.22070312.16308594-.36621094.16308594h-.20605469v1.46875ZM32.81111206,18.8424721h-2.19042969l.01464844-.11035156,1.05566406-8.18261719,1.12011719,8.29296875ZM30.84333862,18.6471596h1.74511719l-.89355469-6.60644531-.8515625,6.60644531Z" fill="#231815"/>
    </g>
    <g>
      <path d="M40.68785238,15.91056482l2.22597745-5.74047563c.16395848-.42179122.07008421-.79600233-.21089561-.79600233h-.1408114v-1.6640178h3.23287539v1.6640178h-.35106403c-.25783274,0-.49187543.25718977-.74970818.8898766l-1.75724909,4.45195489,2.64776867,7.84814578c.25718977.7265611.39800117.8898766.63204386.8898766h.11766432v1.6640178h-4.10024788v-1.6640178h.1408114c.35106403,0,.37485409-.30476988.14016842-1.05447805l-1.8273333-5.50514699v5.48199991c0,.7265611.16395848,1.07762513.49187543,1.07762513h.11702134v1.6640178h-4.09960491v-1.6640178h.1408114c.39800117,0,.58510672-.32791695.58510672-1.07762513v-11.90145653c0-.65583391-.21089561-1.10077221-.51502251-1.10077221h-.21089561v-1.6640178h4.26356339v1.6640178h-.16395848c-.42114825,0-.60889678.32791695-.60889678,1.10077221v5.43570576Z" fill="#fff"/>
      <path d="M46.43220581,25.21551898h-4.29589844v-1.859375h.23828125c.10546875,0,.140625-.03173828.15820312-.05566406.11328125-.15429688-.05566406-.69433594-.11035156-.87158203l-1.63671875-4.93066406v4.87792969c0,.65039062.1328125.97998047.39355469.97998047h.21484375v1.859375h-4.29492188v-1.859375h.23828125c.22753906,0,.48828125-.11132812.48828125-.97998047v-11.90136719c0-.58105469-.17578125-1.00292969-.41796875-1.00292969h-.30859375v-1.859375h4.45898438v1.859375h-.26171875c-.25292969,0-.51074219.11914062-.51074219,1.00292969v4.91357422l2.03710938-5.25341797c.09277344-.23876953.09960938-.47070312.01660156-.59082031-.03320312-.04882812-.078125-.07226562-.13671875-.07226562h-.23828125v-1.859375h3.42773438v1.859375h-.44824219c-.21972656,0-.4296875.26318359-.65917969.82861328l-1.74414062,4.41796875,2.63671875,7.81445312c.27050781.76416016.39453125.82324219.5390625.82324219h.21582031v1.859375ZM42.33161987,25.02020648h3.90527344v-1.46875h-.02050781c-.29882812,0-.4609375-.21435547-.72363281-.95458984l-2.65917969-7.88330078.01269531-.03320312,1.75683594-4.45214844c.26855469-.65869141.52734375-.95166016.84082031-.95166016h.25292969v-1.46875h-3.03710938v1.46875h.04296875c.12304688,0,.22851562.05566406.29785156.15722656.12011719.17480469.12109375.47021484.00390625.77148438l-2.38867188,6.16162109,1.9921875,6.00195312c.18066406.578125.20410156.88134766.08203125,1.04736328-.06542969.08984375-.171875.13525391-.31542969.13525391h-.04296875v1.46875ZM37.2945105,25.02020648h3.90429688v-1.46875h-.01953125c-.58886719,0-.58886719-.88476562-.58886719-1.17529297v-11.90136719c0-.55761719.08007812-1.19824219.70605469-1.19824219h.06640625v-1.46875h-4.06835938v1.46875h.11328125c.3671875,0,.61328125.48144531.61328125,1.19824219v11.90136719c0,.50439453-.07128906,1.17529297-.68359375,1.17529297h-.04296875v1.46875Z" fill="#231815"/>
    </g>
    <g>
      <path d="M54.55616767,7.71006905v4.77987185h-1.75660612v-.98375086c0-1.54699646-.42179122-1.94435465-1.85112336-1.94435465h-.28097982v5.78676979h.70277104c.60889678,0,.77285525-.25847572.77285525-1.2190795v-.46808538h1.64022775v5.43570576h-1.64022775v-.35234998c0-1.24094063-.14016842-1.56885759-.77285525-1.56885759h-.70277104v6.09025372h.53881256c1.54635348,0,1.9681447-.39735819,1.9681447-2.01379589v-.93745671h1.75660612v4.80301893h-7.8249987v-1.6640178h.11702134c.39864414,0,.5857497-.35106403.5857497-1.07762513v-11.90145653c0-.7265611-.18710556-1.10077221-.56195964-1.10077221h-.1408114v-1.6640178h7.45014462Z" fill="#fff"/>
      <path d="M55.0288855,25.21551898h-8.02050781v-1.859375h.21484375c.20996094,0,.48828125-.1015625.48828125-.97998047v-11.90136719c0-.66552734-.15625-1.00292969-.46484375-1.00292969h-.23828125v-1.859375h7.64550781v4.97509766h-1.95214844v-1.08154297c0-1.46679688-.36035156-1.84667969-1.75292969-1.84667969h-.18359375v5.59179688h.60546875c.51464844,0,.67480469-.15478516.67480469-1.12158203v-.56591797h1.8359375v5.63134766h-1.8359375v-.45019531c0-1.27832031-.15234375-1.47119141-.67480469-1.47119141h-.60546875v5.89501953h.44140625c1.50292969,0,1.87011719-.37597656,1.87011719-1.91601562v-1.03515625h1.95214844v4.99804688ZM47.20369018,25.02020648h7.62988281v-4.60742188h-1.56152344v.83984375c0,1.65722656-.44433594,2.11132812-2.06542969,2.11132812h-.63671875v-6.28564453h.80078125c.73828125,0,.87011719.43652344.87011719,1.66650391v.25488281h1.4453125v-5.24072266h-1.4453125v.37060547c0,.89208984-.12988281,1.31689453-.87011719,1.31689453h-.80078125v-5.98242188h.37890625c1.51074219,0,1.94824219.45800781,1.94824219,2.04199219v.88623047h1.56152344v-4.58447266h-7.25488281v1.46875h.04296875c.43847656,0,.66015625.40332031.66015625,1.19824219v11.90136719c0,.29052734,0,1.17529297-.68359375,1.17529297h-.01953125v1.46875Z" fill="#231815"/>
    </g>
    <g>
      <path d="M55.70323404,27.2024816c.93681373-.63268683,1.31166782-1.14706637,1.31166782-1.7797532,0-.2816228-.14016842-.46937133-.37485409-.56324559-.70277104-.09387427-1.030688-.53881256-1.030688-1.3348149,0-1.05447805.56260262-1.63958477,1.49941635-1.63958477,1.10141518,0,1.71031196.77285525,1.71031196,2.15525026,0,1.66273185-.74970818,2.90495843-2.50695727,3.98258356l-.60889678-.82043536Z" fill="#fff"/>
      <path d="M56.286698,28.15301898l-.72167969-.97460938.08398438-.05712891c.90136719-.60839844,1.26855469-1.10058594,1.26855469-1.69873047,0-.22998047-.10546875-.38916016-.31347656-.47216797-.71679688-.09277344-1.09277344-.57470703-1.09277344-1.42578125,0-1.08789062.59765625-1.73730469,1.59765625-1.73730469,1.1484375,0,1.80761719.82128906,1.80761719,2.25292969,0,1.72900391-.78710938,2.98291016-2.55371094,4.06591797l-.07617188.046875ZM55.84236206,27.22577289l.49511719.66699219c1.64746094-1.03271484,2.38378906-2.22412109,2.38378906-3.85253906,0-1.32714844-.57226562-2.05761719-1.61230469-2.05761719-.89160156,0-1.40234375.56201172-1.40234375,1.54199219,0,.75878906.30078125,1.15234375.94628906,1.23828125.3046875.11865234.45996094.35058594.45996094.65966797,0,.65185547-.36914062,1.17919922-1.27050781,1.80322266Z" fill="#231815"/>
    </g>
    <g>
      <path d="M68.07213298,8.45977723l.04693713-.74970818h1.56950056v4.61527039h-1.73345904v-1.52256343c-.16395848-.93745671-.51566549-1.3348149-1.1714994-1.3348149-.67962396,0-.98375086.49123246-.98375086,1.68587893,0,1.33610085.49187543,2.03822891,1.89741752,3.60837245,2.08516605,2.31985171,2.57704148,3.37432976,2.57704148,5.8343499,0,3.09142102-1.12456226,4.75543882-3.16279118,4.75543882-.98375086,0-1.71031196-.35106403-2.24912452-1.14835232l-.04693713.91430963h-1.59264764v-5.2711043h1.75660612v1.75660612c.23468566,1.05447805.74970818,1.68716488,1.35924793,1.68716488.84358244,0,1.28852074-.68026694,1.28852074-2.01508184,0-1.59329062-.32791695-2.31985171-2.13210318-4.33493355-1.73345904-1.94435465-2.2722716-3.06827394-2.2722716-5.20037712,0-2.71849585,1.14770934-4.26420636,3.04512686-4.26420636.77349823,0,1.38239501.32791695,1.80418623.98375086Z" fill="#fff"/>
      <path d="M67.11189331,25.44989398c-.94042969,0-1.63574219-.30908203-2.16601562-.96826172l-.03808594.73388672h-1.78222656v-5.46630859h1.95117188v1.85449219c.21972656.97216797.70410156,1.58935547,1.26171875,1.58935547.79101562,0,1.19140625-.64501953,1.19140625-1.91748047,0-1.59375-.35449219-2.31201172-2.10742188-4.27001953-1.80371094-2.02197266-2.296875-3.15380859-2.296875-5.26513672,0-2.73144531,1.17480469-4.36181641,3.14257812-4.36181641.71679688,0,1.29589844.26953125,1.72363281.80224609l.03515625-.56835938h1.75976562v4.81054688h-1.9296875v-1.62011719c-.15332031-.87402344-.46484375-1.23730469-1.07324219-1.23730469-.4609375,0-.88671875.19238281-.88671875,1.58837891,0,1.32568359.51367188,2.02441406,1.87207031,3.54345703,2.11621094,2.35253906,2.60253906,3.45556641,2.60253906,5.89892578,0,3.12988281-1.15722656,4.85351562-3.25976562,4.85351562ZM64.78083862,23.90741351l.16308594.24169922c.50878906.75439453,1.19726562,1.10546875,2.16796875,1.10546875,1.9765625,0,3.06445312-1.65429688,3.06445312-4.65820312,0-2.41015625-.453125-3.43457031-2.55175781-5.76855469-1.39550781-1.55957031-1.92285156-2.27978516-1.92285156-3.67382812,0-1.23339844.33398438-1.78369141,1.08203125-1.78369141.70605469,0,1.09667969.43652344,1.26660156,1.41601562l.00195312,1.44140625h1.5390625v-4.41992188h-1.38085938l-.05957031.95458984-.16113281-.25c-.40039062-.62255859-.97949219-.93847656-1.72167969-.93847656-1.87304688,0-2.94726562,1.51855469-2.94726562,4.16650391,0,2.05273438.48242188,3.15673828,2.24707031,5.13525391,1.79394531,2.00390625,2.15722656,2.74414062,2.15722656,4.39990234,0,1.74609375-.75390625,2.11279297-1.38671875,2.11279297-.6640625,0-1.20800781-.65917969-1.45507812-1.76318359l-.00195312-1.68066406h-1.56054688v5.07568359h1.40136719l.05859375-1.11279297Z" fill="#231815"/>
    </g>
    <g>
      <path d="M78.56676148,16.40179728c0,7.54466186-.60953975,8.95020394-3.79547801,8.95020394-3.18658123,0-3.77233093-1.33610085-3.77233093-8.95020394,0-7.58967007.5857497-8.92577091,3.77233093-8.92577091,3.20972831,0,3.79547801,1.38239501,3.79547801,8.92577091ZM73.78688963,16.40179728c0,6.32558235.35170701,7.00584929.98439384,7.00584929.84293947,0,1.030688-.68026694,1.030688-7.00584929s-.18774853-6.98141626-1.030688-6.98141626c-.84358244,0-.98439384.65583391-.98439384,6.98141626Z" fill="#fff"/>
      <path d="M74.771073,25.44989398c-3.25488281,0-3.87011719-1.4375-3.87011719-9.04833984,0-7.58935547.61523438-9.02294922,3.87011719-9.02294922,3.27539062,0,3.89355469,1.43359375,3.89355469,9.02294922,0,7.61083984-.61816406,9.04833984-3.89355469,9.04833984ZM74.771073,7.57391742c-3.125,0-3.67480469,1.31982422-3.67480469,8.82763672,0,7.52929688.54980469,8.85302734,3.67480469,8.85302734,3.11035156,0,3.69824219-1.40673828,3.69824219-8.85302734,0-7.5078125-.55273438-8.82763672-3.69824219-8.82763672ZM74.771073,23.50506976c-.73535156,0-1.08203125-.70068359-1.08203125-7.10351562,0-6.28466797.12109375-7.07861328,1.08203125-7.07861328.9296875,0,1.12890625.60986328,1.12890625,7.07861328,0,6.49121094-.19921875,7.10351562-1.12890625,7.10351562ZM74.771073,9.51825335c-.73046875,0-.88671875.59326172-.88671875,6.88330078,0,6.39941406.38476562,6.90820312.88671875,6.90820312.74511719,0,.93359375-.67871094.93359375-6.90820312,0-6.20703125-.18847656-6.88330078-.93359375-6.88330078Z" fill="#231815"/>
    </g>
    <g>
      <path d="M83.88351697,7.71006905v1.6640178h-.25783274c-.37485409,0-.63268683.4449383-.63268683,1.07762513v12.81448021h.35170701c1.31166782,0,1.64022775-.32791695,1.64022775-2.01379589v-1.05447805h1.73345904v4.92004027h-7.28618614v-1.6640178h.21089561c.35106403,0,.51502251-.35106403.51502251-1.07762513v-11.92460361c0-.70341402-.18710556-1.07762513-.53881256-1.07762513h-.18710556v-1.6640178h4.45131192Z" fill="#fff"/>
      <path d="M86.81599487,25.21551898h-7.48144531v-1.859375h.30859375c.10351562,0,.41699219,0,.41699219-.97998047v-11.92431641c0-.44726562-.07617188-.97998047-.44042969-.97998047h-.28515625v-1.859375h4.64648438v1.859375h-.35546875c-.31542969,0-.53515625.40283203-.53515625.97998047v12.71679688h.25390625c1.21386719,0,1.54296875-.23828125,1.54296875-1.91601562v-1.15234375h1.92871094v5.11523438ZM79.52986206,25.02020648h7.09082031v-4.72460938h-1.53808594v.95703125c0,1.69677734-.34082031,2.11132812-1.73828125,2.11132812h-.44921875v-12.91210938c0-.69189453.30078125-1.17529297.73046875-1.17529297h.16015625v-1.46875h-4.25585938v1.46875h.08984375c.29003906,0,.63574219.20410156.63574219,1.17529297v11.92431641c0,.29052734,0,1.17529297-.61230469,1.17529297h-.11328125v1.46875Z" fill="#231815"/>
    </g>
    <g>
      <path d="M88.05320609,25.11795853l-2.06137599-15.01731058c-.07072719-.46937133-.21089561-.7265611-.42179122-.7265611h-.1408114v-1.6640178h4.0295207v1.6640178h-.3041269c-.2816228,0-.44558127.25718977-.39864414.58510672l1.56950056,11.5503925,1.49941635-11.57353958c.04693713-.35106403-.14016842-.56195964-.49187543-.56195964h-.3041269v-1.6640178h3.13900112v1.6640178h-.11702134c-.25783274,0-.4449383.25718977-.49187543.67898099l-1.99129178,15.06489069h-3.51449819Z" fill="#fff"/>
      <path d="M91.6538855,25.21551898h-3.68554688l-.01171875-.08447266-2.06152344-15.01708984c-.06152344-.41357422-.17773438-.64208984-.32519531-.64208984h-.23828125v-1.859375h4.22460938v1.859375h-.40136719c-.08886719,0-.16503906.03320312-.21875.09570312-.07519531.08691406-.10546875.22460938-.08300781.37744141l1.47070312,10.82226562,1.40429688-10.84375c.01855469-.14306641-.00585938-.25927734-.07226562-.33544922-.06738281-.07617188-.17871094-.11621094-.32324219-.11621094h-.40136719v-1.859375h3.33398438v1.859375h-.21386719c-.203125,0-.35449219.2265625-.39550781.59179688l-2.00195312,15.15185547ZM88.1382605,25.02020648h3.34375l1.98046875-14.97998047c.05175781-.47021484.27832031-.76367188.58886719-.76367188h.01855469v-1.46875h-2.94335938v1.46875h.20605469c.20214844,0,.36523438.06347656.46972656.18310547s.14550781.2890625.11914062.48925781l-1.59375,12.30273438-1.66796875-12.27929688c-.03027344-.20849609.01660156-.40283203.12890625-.53271484.09082031-.10498047.22070312-.16308594.36621094-.16308594h.20605469v-1.46875h-3.83398438v1.46875h.04296875c.26367188,0,.4375.27246094.51855469.80957031l2.04980469,14.93408203Z" fill="#231815"/>
    </g>
    <g>
      <path d="M102.22564828,7.71006905v4.77987185h-1.75660612v-.98375086c0-1.54699646-.42179122-1.94435465-1.85112336-1.94435465h-.28097982v5.78676979h.70277104c.60889678,0,.77285525-.25847572.77285525-1.2190795v-.46808538h1.64022775v5.43570576h-1.64022775v-.35234998c0-1.24094063-.14016842-1.56885759-.77285525-1.56885759h-.70277104v6.09025372h.53881256c1.54635348,0,1.9681447-.39735819,1.9681447-2.01379589v-.93745671h1.75660612v4.80301893h-7.8249987v-1.6640178h.11766432c.39800117,0,.58510672-.35106403.58510672-1.07762513v-11.90145653c0-.7265611-.18710556-1.10077221-.56195964-1.10077221h-.1408114v-1.6640178h7.45014462Z" fill="#fff"/>
      <path d="M102.69783081,25.21551898h-8.01953125v-1.859375h.21484375c.20898438,0,.48730469-.1015625.48730469-.97998047v-11.90136719c0-.66552734-.15625-1.00292969-.46386719-1.00292969h-.23828125v-1.859375h7.64453125v4.97509766h-1.95117188v-1.08154297c0-1.46679688-.36035156-1.84667969-1.75390625-1.84667969h-.18359375v5.59179688h.60546875c.51464844,0,.67480469-.15478516.67480469-1.12158203v-.56591797h1.8359375v5.63134766h-1.8359375v-.45019531c0-1.27832031-.15234375-1.47119141-.67480469-1.47119141h-.60546875v5.89501953h.44140625c1.50390625,0,1.87109375-.37597656,1.87109375-1.91601562v-1.03515625h1.95117188v4.99804688ZM94.87361206,25.02020648h7.62890625v-4.60742188h-1.56054688v.83984375c0,1.65722656-.44433594,2.11132812-2.06640625,2.11132812h-.63671875v-6.28564453h.80078125c.73828125,0,.87011719.43652344.87011719,1.66650391v.25488281h1.4453125v-5.24072266h-1.4453125v.37060547c0,.89208984-.12988281,1.31689453-.87011719,1.31689453h-.80078125v-5.98242188h.37890625c1.51171875,0,1.94921875.45800781,1.94921875,2.04199219v.88623047h1.56054688v-4.58447266h-7.25390625v1.46875h.04296875c.4375,0,.65917969.40332031.65917969,1.19824219v11.90136719c0,.29052734,0,1.17529297-.68261719,1.17529297h-.01953125v1.46875Z" fill="#231815"/>
    </g>
    <g>
      <path d="M103.37335762,27.2024816c.93681373-.63268683,1.31166782-1.14706637,1.31166782-1.7797532,0-.2816228-.14016842-.46937133-.37485409-.56324559-.70277104-.09387427-1.030688-.53881256-1.030688-1.3348149,0-1.05447805.56260262-1.63958477,1.49941635-1.63958477,1.10141518,0,1.71031196.77285525,1.71031196,2.15525026,0,1.66273185-.74970818,2.90495843-2.50695727,3.98258356l-.60889678-.82043536Z" fill="#fff"/>
      <path d="M103.95661987,28.15301898l-.72167969-.97460938.08398438-.05712891c.90136719-.60839844,1.26855469-1.10058594,1.26855469-1.69873047,0-.22998047-.10546875-.38916016-.31347656-.47216797-.71679688-.09277344-1.09179688-.57421875-1.09179688-1.42578125,0-1.08789062.59667969-1.73730469,1.59667969-1.73730469,1.1484375,0,1.80761719.82128906,1.80761719,2.25292969,0,1.72949219-.78710938,2.98339844-2.55371094,4.06591797l-.07617188.046875ZM103.51228393,27.22577289l.49511719.66699219c1.64746094-1.03222656,2.38378906-2.22363281,2.38378906-3.85253906,0-1.32714844-.57226562-2.05761719-1.61230469-2.05761719-.890625,0-1.40136719.56201172-1.40136719,1.54199219,0,.75878906.30078125,1.15234375.9453125,1.23828125.3046875.11865234.45996094.35058594.45996094.65966797,0,.65185547-.36914062,1.17919922-1.27050781,1.80322266Z" fill="#231815"/>
    </g>
  </g>
  <g>
    <g>
      <path d="M40.12589274,33.46633841c2.97568562,0,3.65530958.91302368,3.65530958,5.03706161,0,4.40437478-.79664531,5.59902126-3.70160374,5.59902126h-.70341402v4.03016367c0,.72527515.18774853,1.07762513.5857497,1.07762513h.25783274v1.66273185h-4.38122771v-1.66273185h.18774853c.35106403,0,.51502251-.35234998.51502251-1.07762513v-11.90145653c0-.7265611-.16395848-1.10205816-.49187543-1.10205816h-.21089561v-1.66273185h4.28735344ZM39.72789157,42.27508798c1.030688,0,1.26537366-.67898099,1.26537366-3.53764526,0-2.78793709-.23468566-3.42062392-1.26537366-3.42062392h-.35170701v6.95826919h.35170701Z" fill="#fff"/>
      <path d="M40.31697143,50.97040179h-4.57617188v-1.85791016h.28515625c.10351562,0,.41796875,0,.41796875-.97998047v-11.90136719c0-.45800781-.06835938-1.00439453-.39453125-1.00439453h-.30859375v-1.85791016h4.38476562c3.05175781,0,3.75292969.95996094,3.75292969,5.13476562,0,4.47167969-.81640625,5.69628906-3.79882812,5.69628906h-.60546875v3.93261719c0,.87841797.27832031.97998047.48730469.97998047h.35546875v1.85791016ZM35.93611206,50.77508929h4.18554688v-1.46728516h-.16015625c-.68261719,0-.68261719-.88476562-.68261719-1.17529297v-4.12792969h.80078125c2.86230469,0,3.60351562-1.13085938,3.60351562-5.50097656,0-4.0625-.63183594-4.93945312-3.55761719-4.93945312h-4.18945312v1.46728516h.11328125c.39160156,0,.58984375.40380859.58984375,1.19970703v11.90136719c0,.29052734,0,1.17529297-.61328125,1.17529297h-.08984375v1.46728516ZM39.72810425,42.37274554h-.44921875v-7.15380859h.44921875c1.17480469,0,1.36328125.83544922,1.36328125,3.51855469,0,2.72753906-.19726562,3.63525391-1.36328125,3.63525391ZM39.474198,42.17743304h.25390625c.890625,0,1.16796875-.47460938,1.16796875-3.43994141,0-2.88720703-.26269531-3.32324219-1.16796875-3.32324219h-.25390625v6.76318359Z" fill="#231815"/>
    </g>
    <g>
      <path d="M48.65237654,33.46633841v1.66273185h-.18710556c-.32791695,0-.49187543.37549706-.49187543,1.10205816v10.72995714c0,1.66273185.28097982,2.20154442,1.14770934,2.20154442.89051957,0,1.19464647-.56195964,1.19464647-2.20154442v-10.72995714c0-.70341402-.16395848-1.10205816-.46808538-1.10205816h-.18774853v-1.66273185h3.35053971v1.66273185h-.18774853c-.35106403,0-.51502251.37549706-.51502251,1.10205816v10.58850277c0,3.23416134-.84358244,4.28735344-3.44441397,4.28735344-2.74099996,0-3.74854087-1.10077221-3.74854087-4.23977333v-10.63608287c0-.7741412-.14016842-1.10205816-.46872835-1.10205816h-.23404269v-1.66273185h4.24041631Z" fill="#fff"/>
      <path d="M48.86286987,51.20477679c-2.80371094,0-3.84570312-1.17578125-3.84570312-4.33740234v-10.63623047c0-.88525391-.1875-1.00439453-.37109375-1.00439453h-.33203125v-1.85791016h4.43554688v1.85791016h-.28417969c-.32617188,0-.39453125.54638672-.39453125,1.00439453v10.72998047c0,1.7890625.33886719,2.10400391,1.04980469,2.10400391.71191406,0,1.09765625-.33544922,1.09765625-2.10400391v-10.72998047c0-.62890625-.13867188-1.00439453-.37109375-1.00439453h-.28515625v-1.85791016h3.54589844v1.85791016h-.28515625c-.27734375,0-.41796875.33789062-.41796875,1.00439453v10.58837891c0,3.27880859-.89355469,4.38525391-3.54199219,4.38525391ZM44.50935425,35.03143695h.13671875c.49902344,0,.56640625.60644531.56640625,1.19970703v10.63623047c0,3.05810547.95507812,4.14208984,3.65039062,4.14208984,2.53320312,0,3.34667969-1.01806641,3.34667969-4.18994141v-10.58837891c0-.296875,0-1.19970703.61328125-1.19970703h.08984375v-1.46728516h-3.15527344v1.46728516h.08984375c.21191406,0,.56640625.15576172.56640625,1.19970703v10.72998047c0,1.45605469-.21191406,2.29931641-1.29296875,2.29931641-1.046875,0-1.24511719-.80810547-1.24511719-2.29931641v-10.72998047c0-.79589844.19824219-1.19970703.58984375-1.19970703h.08886719v-1.46728516h-4.04492188v1.46728516Z" fill="#231815"/>
    </g>
    <g>
      <path d="M61.09135969,33.46633841v1.47498332l-4.75543882,14.08113982h1.00689794c1.42933214,0,1.94499762-.58639267,1.94499762-2.06137599v-1.00818389h1.73345904v4.92004027h-7.49708175v-2.08452307l4.5220391-13.47160007h-.70341402c-1.38175203,0-1.87427044.53881256-1.87427044,2.06137599v1.00818389h-1.73345904v-4.92004027h7.35627035Z" fill="#fff"/>
      <path d="M61.11872925,50.97040179h-7.69238281l.00488281-2.21337891,4.47949219-13.34277344h-.56835938c-1.328125,0-1.77636719.49560547-1.77636719,1.96386719v1.10595703h-1.92871094v-5.11523438h7.55175781l-.00488281,1.60351562-4.71289062,13.95263672h.87109375c1.36425781,0,1.84765625-.51367188,1.84765625-1.96386719v-1.10595703h1.92871094v5.11523438ZM53.62165893,50.77508929h7.30175781v-4.72460938h-1.53808594v.91064453c0,1.55371094-.57324219,2.15917969-2.04296875,2.15917969h-1.14257812l.04296875-.12890625,4.75097656-14.06640625v-1.36083984h-7.16113281v4.72460938h1.53808594v-.91064453c0-1.57373047.53417969-2.15917969,1.97167969-2.15917969h.83984375l-.04296875.12890625-4.51757812,13.45654297v1.97070312Z" fill="#231815"/>
    </g>
    <g>
      <path d="M69.26677945,33.46633841v1.47498332l-4.75543882,14.08113982h1.00689794c1.42933214,0,1.94499762-.58639267,1.94499762-2.06137599v-1.00818389h1.73345904v4.92004027h-7.49708175v-2.08452307l4.5220391-13.47160007h-.70341402c-1.38175203,0-1.87427044.53881256-1.87427044,2.06137599v1.00818389h-1.73345904v-4.92004027h7.35627035Z" fill="#fff"/>
      <path d="M69.2945105,50.97040179h-7.69238281l.00488281-2.21337891,4.47851562-13.34277344h-.56738281c-1.328125,0-1.77636719.49560547-1.77636719,1.96386719v1.10595703h-1.92871094v-5.11523438h7.55175781l-.00488281,1.60351562-4.71289062,13.95263672h.87109375c1.36425781,0,1.84765625-.51367188,1.84765625-1.96386719v-1.10595703h1.92871094v5.11523438ZM61.79744018,50.77508929h7.30175781v-4.72460938h-1.53808594v.91064453c0,1.55371094-.57324219,2.15917969-2.04296875,2.15917969h-1.14257812l.04296875-.12890625,4.75097656-14.06640625v-1.36083984h-7.16113281v4.72460938h1.53808594v-.91064453c0-1.57373047.53417969-2.15917969,1.97167969-2.15917969h.83886719l-.04296875.12890625-4.51660156,13.45654297v1.97070312Z" fill="#231815"/>
    </g>
    <g>
      <path d="M74.42021944,33.46633841v1.66273185h-.25783274c-.37485409,0-.63268683.4449383-.63268683,1.07762513v12.81576616h.35170701c1.31166782,0,1.64022775-.32791695,1.64022775-2.01508184v-1.05447805h1.73345904v4.92004027h-7.28618614v-1.66273185h.21089561c.35106403,0,.51502251-.35234998.51502251-1.07762513v-11.92588956c0-.70212807-.18710556-1.07762513-.53881256-1.07762513h-.18710556v-1.66273185h4.45131192Z" fill="#fff"/>
      <path d="M77.35310425,50.97040179h-7.48144531v-1.85791016h.30859375c.10351562,0,.41699219,0,.41699219-.97998047v-11.92578125c0-.36621094-.05761719-.97998047-.44140625-.97998047h-.28417969v-1.85791016h4.64648438v1.85791016h-.35546875c-.31542969,0-.53515625.40283203-.53515625.97998047v12.71826172h.25390625c1.21386719,0,1.54296875-.23876953,1.54296875-1.91748047v-1.15234375h1.92871094v5.11523438ZM70.06697143,50.77508929h7.09082031v-4.72460938h-1.53808594v.95703125c0,1.69824219-.34082031,2.11279297-1.73828125,2.11279297h-.44921875v-12.91357422c0-.69189453.30078125-1.17529297.73046875-1.17529297h.16015625v-1.46728516h-4.25585938v1.46728516h.08886719c.29003906,0,.63671875.20410156.63671875,1.17529297v11.92578125c0,.29052734,0,1.17529297-.61230469,1.17529297h-.11328125v1.46728516Z" fill="#231815"/>
    </g>
    <g>
      <path d="M85.47680758,33.46633841v4.7785859h-1.75660612v-.98375086c0-1.54571051-.42179122-1.94435465-1.85112336-1.94435465h-.28097982v5.78676979h.70277104c.60889678,0,.77285525-.25718977.77285525-1.21779355v-.46937133h1.64022775v5.43570576h-1.64022775v-.35106403c0-1.24222658-.14016842-1.57014354-.77285525-1.57014354h-.70277104v6.09153967h.53881256c1.54635348,0,1.9681447-.39864414,1.9681447-2.01508184v-.93745671h1.75660612v4.80301893h-7.8249987v-1.66273185h.11702134c.39864414,0,.5857497-.35234998.5857497-1.07762513v-11.90145653c0-.7265611-.18710556-1.10205816-.56195964-1.10205816h-.1408114v-1.66273185h7.45014462Z" fill="#fff"/>
      <path d="M85.94978393,50.97040179h-8.02050781v-1.85791016h.21484375c.20898438,0,.48730469-.1015625.48730469-.97998047v-11.90136719c0-.66650391-.15625-1.00439453-.46386719-1.00439453h-.23828125v-1.85791016h7.64550781v4.97363281h-1.95214844v-1.08105469c0-1.46728516-.36035156-1.84716797-1.75390625-1.84716797h-.18261719v5.59179688h.60449219c.515625,0,.67578125-.15429688.67578125-1.12011719v-.56738281h1.83496094v5.63134766h-1.83496094v-.44873047c0-1.27929688-.15234375-1.47265625-.67578125-1.47265625h-.60449219v5.89648438h.44042969c1.50390625,0,1.87109375-.37646484,1.87109375-1.91748047v-1.03515625h1.95214844v4.99804688ZM78.12458862,50.77508929h7.62988281v-4.60742188h-1.56152344v.83984375c0,1.65869141-.44433594,2.11279297-2.06640625,2.11279297h-.63574219v-6.28710938h.79980469c.73925781,0,.87109375.43701172.87109375,1.66796875v.25341797h1.44433594v-5.24072266h-1.44433594v.37207031c0,.89111328-.13085938,1.31542969-.87109375,1.31542969h-.79980469v-5.98242188h.37792969c1.51171875,0,1.94921875.45800781,1.94921875,2.04248047v.88574219h1.56152344v-4.58300781h-7.25488281v1.46728516h.04296875c.4375,0,.65917969.40380859.65917969,1.19970703v11.90136719c0,.29052734,0,1.17529297-.68261719,1.17529297h-.01953125v1.46728516Z" fill="#231815"/>
    </g>
  </g>
</svg>